<svg width="273" height="197" viewBox="0 0 273 197" fill="none" xmlns="http://www.w3.org/2000/svg">
<path d="M153.68 175.65H4.75C2.67893 175.65 1 177.329 1 179.4V191.79C1 193.861 2.67893 195.54 4.75 195.54H153.68C155.751 195.54 157.43 193.861 157.43 191.79V179.4C157.43 177.329 155.751 175.65 153.68 175.65Z" stroke="#00848F" stroke-miterlimit="10"/>
<path d="M151.44 123H6.99C3.68181 123 1 125.682 1 128.99V167.73C1 171.038 3.68181 173.72 6.99 173.72H151.44C154.748 173.72 157.43 171.038 157.43 167.73V128.99C157.43 125.682 154.748 123 151.44 123Z" stroke="#00848F" stroke-miterlimit="10"/>
<path d="M153.68 153.83H4.75C2.67893 153.83 1 155.509 1 157.58V169.97C1 172.041 2.67893 173.72 4.75 173.72H153.68C155.751 173.72 157.43 172.041 157.43 169.97V157.58C157.43 155.509 155.751 153.83 153.68 153.83Z" stroke="#00848F" stroke-miterlimit="10"/>
<path opacity="0.35" d="M9.10172 165.63C9.84178 165.63 10.4417 165.03 10.4417 164.29C10.4417 163.55 9.84178 162.95 9.10172 162.95C8.36166 162.95 7.76172 163.55 7.76172 164.29C7.76172 165.03 8.36166 165.63 9.10172 165.63Z" fill="#00848F"/>
<path d="M14.6291 165.63C15.3691 165.63 15.9691 165.03 15.9691 164.29C15.9691 163.55 15.3691 162.95 14.6291 162.95C13.889 162.95 13.2891 163.55 13.2891 164.29C13.2891 165.03 13.889 165.63 14.6291 165.63Z" fill="#EEFF8C"/>
<path opacity="0.35" d="M9.10172 186.94C9.84178 186.94 10.4417 186.34 10.4417 185.6C10.4417 184.86 9.84178 184.26 9.10172 184.26C8.36166 184.26 7.76172 184.86 7.76172 185.6C7.76172 186.34 8.36166 186.94 9.10172 186.94Z" fill="#00848F"/>
<path opacity="0.35" d="M14.6291 186.94C15.3691 186.94 15.9691 186.34 15.9691 185.6C15.9691 184.86 15.3691 184.26 14.6291 184.26C13.889 184.26 13.2891 184.86 13.2891 185.6C13.2891 186.34 13.889 186.94 14.6291 186.94Z" fill="#00848F"/>
<path d="M110.559 158.44V170.17" stroke="#00848F" stroke-miterlimit="10" stroke-linecap="round"/>
<path d="M113.309 158.44V170.17" stroke="#00848F" stroke-miterlimit="10" stroke-linecap="round"/>
<path d="M116.059 158.44V170.17" stroke="#00848F" stroke-miterlimit="10" stroke-linecap="round"/>
<path d="M118.809 158.44V170.17" stroke="#00848F" stroke-miterlimit="10" stroke-linecap="round"/>
<path d="M121.559 158.44V170.17" stroke="#00848F" stroke-miterlimit="10" stroke-linecap="round"/>
<path d="M124.309 158.44V170.17" stroke="#00848F" stroke-miterlimit="10" stroke-linecap="round"/>
<path d="M127.07 158.44V170.17" stroke="#00848F" stroke-miterlimit="10" stroke-linecap="round"/>
<path d="M129.82 158.44V170.17" stroke="#00848F" stroke-miterlimit="10" stroke-linecap="round"/>
<path d="M132.57 158.44V170.17" stroke="#00848F" stroke-miterlimit="10" stroke-linecap="round"/>
<path d="M110.559 179.73V191.47" stroke="#00848F" stroke-miterlimit="10" stroke-linecap="round"/>
<path d="M113.309 179.73V191.47" stroke="#00848F" stroke-miterlimit="10" stroke-linecap="round"/>
<path d="M116.059 179.73V191.47" stroke="#00848F" stroke-miterlimit="10" stroke-linecap="round"/>
<path d="M118.809 179.73V191.47" stroke="#00848F" stroke-miterlimit="10" stroke-linecap="round"/>
<path d="M121.559 179.73V191.47" stroke="#00848F" stroke-miterlimit="10" stroke-linecap="round"/>
<path d="M124.309 179.73V191.47" stroke="#00848F" stroke-miterlimit="10" stroke-linecap="round"/>
<path d="M127.07 179.73V191.47" stroke="#00848F" stroke-miterlimit="10" stroke-linecap="round"/>
<path d="M129.82 179.73V191.47" stroke="#00848F" stroke-miterlimit="10" stroke-linecap="round"/>
<path d="M132.57 179.73V191.47" stroke="#00848F" stroke-miterlimit="10" stroke-linecap="round"/>
<path d="M135.32 179.73V191.47" stroke="#00848F" stroke-miterlimit="10" stroke-linecap="round"/>
<path d="M138.07 179.73V191.47" stroke="#00848F" stroke-miterlimit="10" stroke-linecap="round"/>
<mask id="mask0_156_151" style="mask-type:luminance" maskUnits="userSpaceOnUse" x="42" y="0" width="231" height="136">
<path d="M269.61 0H45.3C43.4775 0 42 1.47746 42 3.3V132.7C42 134.523 43.4775 136 45.3 136H269.61C271.433 136 272.91 134.523 272.91 132.7V3.3C272.91 1.47746 271.433 0 269.61 0Z" fill="white"/>
</mask>
<g mask="url(#mask0_156_151)">
<path d="M300.6 0H14.3102C11.3278 0 8.91016 2.41766 8.91016 5.4V130.6C8.91016 133.582 11.3278 136 14.3102 136H300.6C303.582 136 306 133.582 306 130.6V5.4C306 2.41766 303.582 0 300.6 0Z" fill="#1A91FF"/>
<path d="M58.3594 74.8198H109.679" stroke="white" stroke-width="6" stroke-miterlimit="10" stroke-linecap="round"/>
<path d="M58.3594 87.4697H97.7294" stroke="white" stroke-width="6" stroke-miterlimit="10" stroke-linecap="round"/>
<g opacity="0.5">
<path d="M58.3594 108.59H97.7294" stroke="#E3FFEE" stroke-width="2" stroke-miterlimit="10" stroke-linecap="round"/>
<path d="M58.3594 115.6H119.729" stroke="#E3FFEE" stroke-width="2" stroke-miterlimit="10" stroke-linecap="round"/>
<path d="M58.3594 122.61H104.119" stroke="#E3FFEE" stroke-width="2" stroke-miterlimit="10" stroke-linecap="round"/>
</g>
<path d="M199.62 107.38H161.51C157.224 107.38 153.75 110.854 153.75 115.14V115.15C153.75 119.436 157.224 122.91 161.51 122.91H199.62C203.906 122.91 207.38 119.436 207.38 115.15V115.14C207.38 110.854 203.906 107.38 199.62 107.38Z" fill="white"/>
<path d="M161.891 115.14H180.501" stroke="#1A91FF" stroke-width="2" stroke-miterlimit="10" stroke-linecap="round"/>
<path d="M197.219 115.14H200.759" stroke="#1A91FF" stroke-width="2" stroke-miterlimit="10" stroke-linecap="round"/>
<path d="M37.4909 35.5001L26.7109 46.2801H81.9809L92.8809 35.3701L37.4909 35.5001Z" fill="#FF83B3"/>
<path d="M95.9206 35.5001L85.1406 46.2801H101.661L112.571 35.3701L95.9206 35.5001Z" fill="white"/>
<path d="M48.4794 8.8401C49.9264 8.8401 51.0994 7.66708 51.0994 6.2201C51.0994 4.77311 49.9264 3.6001 48.4794 3.6001C47.0324 3.6001 45.8594 4.77311 45.8594 6.2201C45.8594 7.66708 47.0324 8.8401 48.4794 8.8401Z" fill="#FF61A4"/>
<path d="M57.7098 8.8401C59.1568 8.8401 60.3298 7.66708 60.3298 6.2201C60.3298 4.77311 59.1568 3.6001 57.7098 3.6001C56.2629 3.6001 55.0898 4.77311 55.0898 6.2201C55.0898 7.66708 56.2629 8.8401 57.7098 8.8401Z" fill="#C2FF2E"/>
<path d="M66.9403 8.8401C68.3873 8.8401 69.5603 7.66708 69.5603 6.2201C69.5603 4.77311 68.3873 3.6001 66.9403 3.6001C65.4933 3.6001 64.3203 4.77311 64.3203 6.2201C64.3203 7.66708 65.4933 8.8401 66.9403 8.8401Z" fill="#76D6A3"/>
<path d="M205.872 -9.56006L170.672 -7.20006C171.442 8.78994 176.672 21.6199 185.932 31.1199C191.572 31.2099 197.392 30.5999 203.172 29.3899C230.632 23.6599 249.082 62.2799 277.412 66.9999C300.262 70.8099 285.122 15.5999 278.422 -5.89006L205.872 -9.56006Z" fill="#33509A"/>
<path d="M170.669 -7.2002L141.809 -5.2702C146.209 20.6198 164.789 30.7898 185.929 31.1198C176.669 21.6198 171.439 8.7898 170.669 -7.2002Z" fill="#50ABFF"/>
<path d="M279.54 -5.81988L278.42 -5.87988C285.12 15.6001 300.26 70.8201 277.41 67.0101C249.09 62.2901 230.64 23.6701 203.17 29.4001C197.39 30.6101 191.57 31.2101 185.93 31.1301C193.35 38.7301 203.33 44.2001 215.69 47.4201C244.8 55.0001 242.22 90.6201 285.13 85.9001C328.04 81.1801 279.54 -5.80988 279.54 -5.80988V-5.81988Z" fill="#213C83"/>
</g>
</svg>
