<svg width="648" height="499" viewBox="0 0 648 499" fill="none" xmlns="http://www.w3.org/2000/svg">
<g clip-path="url(#clip0_130_152)">
<path d="M200.095 285.566C198.651 281.631 200.095 275.006 200.095 275.006C200.095 275.006 275.723 24.5864 280.07 10.5027C284.417 -3.5809 296.028 0.566341 296.028 0.566341C296.028 0.566341 620.715 84.2473 636.263 88.3804C651.81 92.5135 647.449 105.988 647.449 105.988C647.449 105.988 564.769 378.362 562.914 385.694C561.06 393.026 557.321 397.626 551.346 399.282L200.109 285.566H200.095Z" fill="white"/>
<path d="M551.33 394.88L537.411 392.035V397.145L208.845 293.067C195.265 288.651 187.69 292.274 187.69 292.274L13.9192 364.887V361.235L0 364.08V373.337H0.0141599C0.155759 374.568 1.40183 375.927 4.98429 377.173C14.7971 380.584 352.015 497.499 352.015 497.499C352.015 497.499 363.542 502.199 378.055 494.938C392.569 487.69 548.371 407.039 548.371 407.039C548.371 407.039 550.778 405.765 551.245 404.123H551.33V394.866V394.88Z" fill="#42C5CF"/>
<path d="M545.822 390.549C556.498 393.535 548.385 397.796 548.385 397.796C548.385 397.796 392.583 478.434 378.069 485.695C363.555 492.956 352.029 488.257 352.029 488.257C352.029 488.257 14.8108 371.341 4.99796 367.93C-4.81486 364.519 2.85981 360.244 2.85981 360.244L187.689 283.018C187.689 283.018 195.265 279.394 208.844 283.81L545.822 390.549Z" fill="#81E1E9"/>
<path d="M196.439 306.302L114.863 341.574C113.66 342.098 113.73 343.839 114.977 344.25L397.651 437.428C398.571 437.74 399.577 437.669 400.455 437.23L479.821 398.051C480.982 397.484 480.854 395.8 479.623 395.404L199.03 306.174C198.18 305.905 197.26 305.948 196.424 306.302H196.439Z" fill="#ABF5FB"/>
</g>
<defs>
<clipPath id="clip0_130_152">
<rect width="648" height="499" fill="white"/>
</clipPath>
</defs>
</svg>
